<?xml version="1.0" standalone="no"?>
<!DOCTYPE svg PUBLIC "-//W3C//DTD SVG 20010904//EN"
 "http://www.w3.org/TR/2001/REC-SVG-20010904/DTD/svg10.dtd">
<svg version="1.0" xmlns="http://www.w3.org/2000/svg"
 width="512.000000pt" height="512.000000pt" viewBox="0 0 512.000000 512.000000"
 preserveAspectRatio="xMidYMid meet">
<metadata>
Created by potrace 1.11, written by Peter Selinger 2001-2013
</metadata>
<g transform="translate(0.000000,512.000000) scale(0.100000,-0.100000)"
fill="#000000" stroke="none">
<path d="M3497 4534 c-1 -1 -33 -5 -72 -8 -130 -12 -231 -28 -317 -51 -32 -8
-70 -17 -86 -20 -112 -19 -393 -125 -577 -217 -737 -368 -1248 -933 -1330
-1470 -18 -114 -10 -292 19 -407 94 -384 462 -678 911 -727 46 -5 246 -5 290
0 311 37 643 172 905 369 238 178 414 382 521 603 77 161 105 292 96 458 -9
181 -64 313 -178 427 -193 194 -482 255 -773 163 -212 -66 -377 -194 -546
-421 -114 -154 -128 -192 -76 -210 32 -11 39 -8 179 85 161 106 259 156 363
183 183 47 384 20 462 -64 113 -121 17 -348 -241 -571 -190 -164 -390 -267
-639 -328 -76 -19 -120 -23 -243 -23 -132 0 -158 3 -220 24 -224 77 -345 254
-339 494 2 96 10 138 40 227 93 268 391 595 747 818 81 51 260 142 280 142 7
0 17 4 23 9 29 27 348 121 479 141 191 30 435 33 565 7 179 -37 292 -81 395
-156 201 -145 318 -363 328 -613 8 -206 -67 -444 -215 -682 -295 -472 -903
-912 -1664 -1205 -251 -96 -515 -166 -774 -205 -178 -27 -463 -26 -605 3 -283
56 -480 180 -611 381 -104 162 -147 321 -147 555 -1 183 19 324 79 543 38 140
39 176 2 185 -28 8 -49 -4 -80 -45 -196 -258 -322 -561 -353 -846 -6 -55 -7
-260 -2 -269 3 -4 8 -33 11 -63 7 -67 38 -189 70 -273 153 -408 553 -718 1061
-822 44 -9 89 -19 100 -21 11 -2 43 -7 70 -10 28 -3 56 -7 63 -10 50 -16 424
-22 572 -10 85 8 240 28 310 41 14 3 40 7 59 10 19 3 37 7 40 9 3 2 23 7 43
10 94 15 375 100 523 158 279 110 563 259 803 420 236 158 506 394 667 583 33
39 62 72 65 75 43 41 207 295 265 410 80 159 174 410 200 533 2 10 6 26 9 35
3 9 7 35 11 57 7 48 13 89 20 130 16 87 16 285 2 385 -22 144 -24 154 -54 245
-78 240 -230 443 -435 578 -185 122 -455 215 -708 243 -57 6 -357 13 -363 8z"/>
</g>
</svg>
